# xmcd
#
# Track frame offsets:
#	150
#	12575
#	27700
#	39025
#	54637
#	70400
#	79937
#	95412
#	113287
#	129650
#	140987
#	154387
#	166487
#
# Disc length: 2347 seconds
#
# Revision: 1
# Processed by: cddbd v1.4PL0 Copyright (c) Steve Scherf et al.
# Submitted via: audiograbber 1.81.03
#
DISCID=b509290d
DTITLE=Noble Coyotes - Noble Coyotes
DYEAR=1900
DGENRE=Blues
TTITLE0=Jump With Me
TTITLE1=Play some Rock and Roll
TTITLE2=You Dog Me Too Much
TTITLE3=Bloodshot Eyes
TTITLE4=Stop Playing Me for the Fool
TTITLE5=Wood Shed
TTITLE6=How How Baby
TTITLE7=Dixie Chicken
TTITLE8=Alligator Meat
TTITLE9=Walking After Midnight
TTITLE10=I Get Evil
TTITLE11=The Crawl
TTITLE12=Meat's Boogie
EXTD=
EXTT0=
EXTT1=
EXTT2=
EXTT3=
EXTT4=
EXTT5=
EXTT6=
EXTT7=
EXTT8=
EXTT9=
EXTT10=
EXTT11=
EXTT12=
PLAYORDER=
